<?xml version="1.0" standalone="no"?>
<!DOCTYPE svg PUBLIC "-//W3C//DTD SVG 20010904//EN"
 "http://www.w3.org/TR/2001/REC-SVG-20010904/DTD/svg10.dtd">
<svg version="1.0" xmlns="http://www.w3.org/2000/svg"
 width="788.000000pt" height="788.000000pt" viewBox="0 0 788.000000 788.000000"
 preserveAspectRatio="xMidYMid meet">
<metadata>
Created by potrace 1.14, written by Peter Selinger 2001-2017
</metadata>
<g transform="translate(0.000000,788.000000) scale(0.100000,-0.100000)"
fill="#000000" stroke="none">
<path d="M3171 6641 c-6 -9 -9 -10 -6 -3 3 6 1 12 -4 12 -6 0 -11 -5 -11 -11
0 -5 -4 -7 -10 -4 -5 3 -10 -1 -10 -9 0 -9 -5 -16 -11 -16 -6 0 -9 -7 -6 -14
4 -10 1 -13 -9 -9 -7 3 -14 1 -14 -4 0 -5 -9 -19 -20 -31 -13 -14 -16 -22 -8
-22 8 0 9 -3 3 -8 -5 -4 -17 -16 -25 -26 -13 -18 -13 -19 0 -12 12 6 11 4 -1
-6 -9 -7 -14 -19 -12 -25 3 -7 -2 -16 -11 -19 -9 -3 -13 -10 -10 -15 3 -5 0
-9 -6 -9 -6 0 -8 -4 -5 -10 3 -5 1 -10 -6 -10 -8 0 -8 -4 1 -15 11 -13 10 -14
-5 -9 -15 6 -17 3 -13 -13 3 -12 -1 -24 -13 -31 -17 -11 -20 -27 -6 -48 4 -7
0 -11 -11 -10 -9 0 -16 -4 -15 -11 1 -6 -4 -14 -13 -17 -10 -4 -13 -2 -8 6 5
8 2 9 -9 5 -9 -3 -19 -2 -22 3 -4 6 -14 6 -27 -1 -15 -8 -19 -8 -13 0 5 8 -1
10 -19 5 -17 -4 -26 -2 -26 6 0 10 -3 10 -15 0 -12 -10 -15 -10 -15 0 0 10 -3
10 -15 0 -12 -10 -15 -10 -15 0 0 9 -4 9 -17 -1 -13 -11 -15 -11 -9 -1 6 11 1
12 -23 9 -17 -3 -34 -1 -37 4 -4 6 -10 6 -18 0 -7 -6 -16 -8 -19 -4 -4 3 -7 2
-7 -4 0 -6 -14 -13 -31 -17 -18 -3 -28 -10 -24 -16 4 -6 1 -17 -5 -25 -9 -11
-9 -15 -1 -15 6 0 10 -3 10 -7 -4 -22 2 -33 13 -27 8 5 9 2 5 -9 -3 -10 -2
-17 4 -17 6 0 7 -5 4 -10 -4 -6 -1 -9 7 -8 7 2 12 -3 10 -11 -3 -12 -1 -12 13
-1 9 7 15 9 14 4 -4 -21 2 -32 21 -37 11 -3 19 -11 18 -17 -2 -7 4 -15 12 -17
13 -4 13 -3 0 6 -13 9 -13 11 1 11 9 0 19 -9 22 -20 3 -12 14 -20 27 -20 15 0
20 -5 17 -14 -4 -10 1 -12 16 -9 18 4 19 3 7 -6 -12 -9 -11 -11 8 -11 13 0 20
-4 17 -10 -4 -6 -3 -9 2 -8 9 3 53 -20 68 -36 26 -26 40 -92 21 -103 -5 -3 -6
-1 -2 5 3 6 2 13 -3 16 -5 4 -7 -6 -5 -22 4 -23 -1 -33 -25 -52 -17 -12 -28
-27 -25 -32 3 -5 -3 -12 -13 -14 -11 -3 -24 -19 -31 -36 -7 -19 -15 -27 -23
-22 -8 5 -9 3 -4 -6 5 -8 -1 -20 -16 -32 -13 -11 -18 -16 -10 -12 10 5 12 3 7
-5 -5 -7 -14 -10 -21 -7 -8 3 -11 -2 -8 -15 3 -11 0 -19 -6 -19 -7 0 -9 5 -5
12 4 7 3 8 -5 4 -9 -6 -9 -11 0 -22 10 -12 9 -13 -5 -8 -10 4 -18 0 -23 -12
-6 -16 -7 -16 -14 2 -7 18 -8 18 -8 0 -1 -14 -4 -16 -14 -7 -8 6 -17 8 -20 4
-4 -3 -7 -2 -7 4 0 6 -7 14 -16 17 -10 4 -13 2 -9 -7 4 -6 0 -4 -8 5 -8 10
-17 15 -20 11 -4 -3 -7 -1 -7 5 0 6 -7 9 -15 6 -8 -4 -17 1 -21 9 -3 9 -14 14
-25 12 -10 -2 -22 1 -25 7 -5 7 -2 8 6 3 8 -5 11 -4 6 3 -4 6 -13 9 -22 5 -8
-3 -21 3 -29 13 -9 12 -14 14 -15 6 0 -7 -5 -10 -10 -7 -6 4 -8 10 -5 15 3 5
-4 7 -16 5 -17 -3 -19 -2 -9 10 9 11 7 12 -11 8 -14 -4 -20 -2 -16 4 5 7 0 9
-13 6 -12 -3 -20 0 -20 6 0 7 -4 9 -10 6 -5 -3 -10 -1 -10 5 0 7 -7 9 -16 6
-10 -4 -13 -2 -8 6 5 7 0 9 -14 6 -13 -4 -19 -2 -16 6 3 7 -5 12 -18 13 -13 1
-24 7 -26 13 -2 5 -7 8 -12 5 -5 -3 -15 2 -24 11 -9 8 -21 12 -27 8 -7 -4 -9
-3 -6 3 4 6 0 14 -9 17 -10 4 -13 2 -8 -6 4 -7 3 -8 -4 -4 -7 4 -12 15 -12 24
0 15 -2 15 -10 2 -8 -12 -10 -12 -10 -1 0 8 -7 11 -20 8 -10 -3 -19 -2 -18 2
3 27 -2 33 -19 20 -9 -8 -14 -9 -10 -3 7 12 -39 39 -60 35 -7 -1 -13 3 -13 8
0 6 -7 7 -17 4 -11 -4 -14 -3 -9 6 9 14 -16 11 -26 -4 -5 -6 -8 -5 -8 4 0 10
-3 11 -13 2 -8 -6 -18 -7 -22 -3 -5 4 -5 1 -1 -5 5 -9 1 -13 -11 -13 -15 0
-15 -2 -3 -10 12 -7 12 -12 -4 -29 -18 -20 -18 -21 5 -30 13 -5 18 -10 12 -10
-7 -1 -13 -6 -13 -12 0 -5 4 -8 9 -5 5 4 7 -4 3 -16 -4 -17 -2 -20 13 -14 15
5 16 4 6 -8 -9 -11 -9 -16 0 -22 8 -5 9 -3 4 6 -5 9 -4 11 3 6 7 -4 12 -14 12
-22 0 -8 8 -18 18 -21 20 -8 47 -33 35 -33 -4 -1 7 -7 26 -15 22 -10 31 -20
28 -29 -4 -11 -1 -13 10 -9 11 4 14 2 9 -5 -5 -8 -1 -10 10 -5 13 5 15 3 9 -7
-6 -10 -4 -12 8 -7 15 6 21 -3 18 -25 0 -3 11 -5 24 -3 16 1 25 -3 25 -11 0
-8 7 -14 16 -14 9 0 12 -5 8 -12 -5 -9 -2 -8 10 1 15 13 18 12 23 -7 3 -12 9
-20 13 -17 4 3 22 -8 41 -24 18 -16 39 -26 47 -23 11 4 13 1 7 -9 -8 -12 -6
-12 9 0 12 10 16 11 14 2 -2 -7 8 -20 22 -29 13 -9 21 -12 17 -6 -3 6 9 4 27
-5 19 -9 31 -20 28 -26 -3 -5 1 -5 9 1 11 9 17 9 26 -1 6 -7 9 -16 5 -21 -4
-4 0 -3 8 1 8 5 26 9 40 9 14 1 31 5 38 9 12 8 16 -3 13 -32 -2 -7 2 -11 7 -7
5 3 9 -2 9 -10 0 -8 -6 -13 -13 -10 -10 4 -10 -2 -2 -25 5 -16 15 -32 21 -36
6 -3 7 -1 3 5 -4 7 -3 12 3 12 5 0 12 -8 16 -19 3 -10 11 -18 18 -18 34 1 48
-4 41 -15 -5 -8 0 -9 14 -6 15 4 22 2 22 -8 0 -8 5 -14 11 -14 5 0 7 6 4 13
-4 6 1 3 9 -7 9 -11 16 -14 16 -7 0 7 5 9 10 6 6 -4 8 -10 5 -15 -3 -4 3 -7
12 -5 10 2 24 4 31 4 7 1 10 6 7 11 -3 6 -2 10 4 10 5 0 12 -6 14 -12 3 -8 6
-5 6 6 1 15 4 16 16 6 13 -11 14 -10 9 3 -7 18 31 43 41 27 4 -6 11 -7 17 -4
6 4 9 3 6 -2 -3 -5 1 -16 10 -24 14 -13 15 -12 8 5 -6 17 -5 17 11 4 32 -26
78 -46 92 -41 9 3 11 0 6 -8 -6 -10 -1 -12 19 -8 14 3 29 1 33 -5 4 -6 1 -7
-8 -2 -12 7 -12 5 -1 -6 11 -12 14 -12 22 1 6 10 10 11 10 3 0 -8 10 -11 28
-9 40 5 63 17 55 29 -4 6 0 8 10 4 11 -4 17 -1 17 8 0 8 5 15 11 15 5 0 7 -5
3 -12 -4 -7 -3 -8 5 -4 9 6 9 11 1 21 -7 8 -7 16 -2 19 5 3 12 17 14 31 3 13
2 22 -2 20 -5 -3 -11 2 -14 11 -3 8 -2 13 2 10 5 -3 9 1 9 9 0 8 -4 12 -9 9
-4 -3 -8 -1 -8 5 0 5 -9 8 -20 6 -11 -2 -20 0 -20 6 0 5 5 9 10 9 6 0 10 4 10
8 0 5 -7 9 -15 9 -8 0 -12 -4 -9 -8 10 -17 -14 -17 -39 -1 -18 13 -23 22 -17
32 10 16 40 23 40 8 0 -6 7 -4 17 3 9 8 14 9 10 3 -4 -7 0 -14 8 -18 8 -3 17
0 21 6 5 7 2 8 -6 3 -9 -5 -11 -4 -6 4 6 9 11 9 22 0 10 -8 14 -8 14 0 0 6 5
11 11 11 5 0 8 -4 5 -9 -4 -5 5 -4 18 2 16 8 21 14 13 19 -19 12 2 9 25 -3 15
-8 19 -8 14 0 -4 6 -1 11 8 11 8 0 17 6 19 13 4 10 6 10 6 0 1 -7 7 -13 14
-13 8 0 12 -18 11 -60 0 -33 4 -60 9 -60 5 0 3 -8 -4 -17 -10 -11 -10 -14 -1
-9 7 4 12 2 12 -4 0 -6 5 -8 12 -4 7 4 8 3 4 -5 -4 -6 -13 -9 -19 -5 -7 3 -3
-2 8 -11 20 -17 20 -17 -5 -10 -23 7 -24 7 -10 -11 8 -10 20 -22 25 -26 6 -5
3 -8 -7 -8 -12 0 -16 -6 -12 -26 3 -14 -1 -33 -8 -42 -10 -12 -10 -14 0 -8 6
4 12 3 12 -1 0 -5 -6 -15 -12 -22 -11 -11 -10 -12 1 -6 8 5 4 -7 -9 -26 l-24
-34 24 20 23 20 -11 -21 c-6 -12 -8 -24 -4 -28 3 -4 -2 -4 -13 0 -18 7 -19 6
-5 -11 12 -15 12 -17 1 -10 -11 6 -13 4 -8 -9 4 -10 3 -15 -3 -11 -6 4 -10 -7
-10 -24 0 -18 -5 -30 -11 -29 -6 2 -14 -3 -17 -11 -3 -9 0 -11 8 -6 7 4 6 -2
-3 -16 -9 -13 -17 -28 -19 -34 -2 -5 -5 -9 -8 -8 -3 1 -6 -12 -6 -29 -1 -17
-7 -34 -14 -38 -8 -5 -15 -19 -17 -32 -2 -13 -8 -24 -13 -26 -6 -2 -10 -12
-10 -23 0 -10 -5 -19 -11 -19 -6 0 -9 -6 -6 -12 2 -7 -5 -21 -16 -30 -11 -10
-17 -18 -13 -18 4 0 -1 -13 -10 -29 -10 -17 -21 -28 -25 -25 -9 5 -35 -37 -31
-50 2 -5 -4 -3 -13 4 -13 11 -14 10 -9 -5 6 -14 4 -16 -6 -10 -10 6 -12 4 -7
-8 4 -11 2 -14 -9 -10 -8 3 -14 2 -13 -3 4 -21 -2 -34 -13 -32 -7 2 -12 -3
-10 -9 1 -7 -3 -13 -8 -13 -6 0 -15 -11 -22 -25 -6 -13 -16 -22 -21 -18 -6 4
-8 0 -4 -10 3 -9 -1 -18 -10 -21 -8 -4 -13 -13 -9 -21 3 -9 -1 -15 -11 -15
-13 0 -14 -2 -2 -17 8 -9 9 -14 2 -10 -7 4 -17 -5 -27 -23 -9 -19 -10 -28 -3
-23 8 5 8 2 0 -9 -7 -8 -9 -19 -5 -23 4 -5 2 -5 -4 -2 -7 4 -14 0 -17 -7 -3
-8 -1 -17 6 -20 7 -2 5 -5 -5 -5 -11 -1 -15 -8 -14 -26 2 -13 0 -22 -4 -20 -5
3 -11 -2 -14 -11 -3 -8 -2 -13 2 -10 5 3 9 -1 9 -9 0 -8 -4 -12 -8 -10 -4 3
-9 -2 -13 -10 -3 -8 -1 -15 4 -15 5 0 7 -7 4 -15 -4 -8 -11 -12 -18 -8 -6 4
-6 0 2 -9 10 -13 10 -17 0 -21 -10 -4 -9 -6 1 -6 11 -1 10 -5 -5 -16 -11 -8
-14 -15 -6 -15 6 0 12 -5 12 -11 0 -5 -4 -8 -9 -5 -11 7 -9 -13 2 -31 5 -7 4
-13 -1 -13 -12 0 -10 -43 3 -52 6 -5 5 -8 -3 -8 -8 0 -10 -5 -5 -12 11 -19 12
-37 2 -44 -6 -3 -6 -11 -1 -17 10 -14 10 -27 -1 -44 -5 -8 -3 -13 5 -13 9 0 9
-3 -2 -10 -12 -8 -12 -10 -1 -10 10 0 11 -3 2 -14 -8 -10 -9 -16 -1 -21 15 -9
13 -28 -2 -19 -7 4 -6 -1 3 -12 11 -13 14 -25 9 -39 -12 -29 -12 -37 1 -29 7
4 9 0 5 -14 -4 -11 -2 -23 4 -27 7 -4 7 -12 0 -25 -7 -13 -7 -21 0 -25 5 -3
10 -15 10 -26 0 -12 4 -17 11 -13 8 5 8 1 0 -14 -8 -14 -8 -23 -1 -27 8 -5 7
-12 -2 -23 -11 -13 -10 -15 4 -9 13 4 15 2 11 -10 -4 -11 -2 -14 5 -9 16 9 15
-7 0 -22 -9 -9 -9 -12 1 -12 7 0 11 -6 8 -15 -4 -8 -1 -17 5 -21 7 -5 8 -2 3
6 -5 9 -4 11 3 6 7 -4 12 -12 12 -18 0 -6 8 -21 18 -32 16 -20 16 -20 -1 -7
-15 12 -17 12 -11 -3 3 -9 10 -16 16 -16 5 0 6 -4 3 -10 -3 -5 -1 -10 5 -10 6
0 8 -4 5 -10 -3 -5 1 -10 9 -10 10 0 13 -6 10 -15 -4 -8 1 -17 10 -21 9 -3 21
-24 26 -45 6 -21 17 -39 24 -39 9 0 12 -7 9 -18 -3 -13 7 -27 31 -45 22 -17
33 -33 30 -42 -4 -8 -1 -15 6 -15 6 0 8 -4 5 -10 -3 -6 1 -7 9 -4 11 4 16 0
16 -10 0 -9 7 -16 16 -16 8 0 12 -4 9 -10 -3 -5 -1 -10 5 -10 6 0 8 -4 5 -10
-3 -5 1 -10 9 -10 9 0 16 -5 16 -11 0 -5 5 -7 12 -3 8 5 9 2 5 -9 -4 -11 -1
-17 8 -17 8 0 15 -5 15 -11 0 -5 5 -7 10 -4 6 4 10 3 9 -2 -3 -20 2 -33 13
-30 7 1 12 -3 13 -10 0 -6 4 -15 9 -20 5 -5 6 -3 2 5 -4 7 -1 12 9 12 9 0 13
-5 10 -10 -3 -6 1 -13 9 -16 9 -3 16 -14 16 -23 0 -14 2 -14 10 -1 8 13 10 12
10 -3 0 -10 5 -15 10 -12 6 3 10 1 10 -4 0 -6 9 -11 20 -11 11 0 20 -5 20 -11
0 -5 -5 -7 -12 -3 -7 4 -8 3 -4 -5 4 -6 12 -9 17 -6 5 4 9 1 9 -5 0 -6 4 -9 9
-6 4 3 17 -2 27 -10 10 -9 13 -12 5 -8 -9 4 -12 3 -8 -4 4 -5 18 -9 32 -7 20
2 23 -1 15 -11 -9 -10 -6 -11 11 -7 17 5 20 3 14 -8 -5 -8 -5 -11 0 -7 4 4 17
1 29 -7 27 -20 45 -19 20 1 -18 15 -18 15 2 5 12 -6 24 -8 27 -5 3 3 3 -4 0
-15 -3 -12 -2 -21 3 -20 21 4 25 -2 13 -18 -12 -14 -12 -16 2 -11 12 5 15 -2
12 -39 -2 -24 0 -42 5 -39 10 6 9 -24 -2 -42 -4 -7 -2 -12 5 -12 10 0 10 -3 1
-12 -17 -17 -15 -28 4 -28 13 0 11 -5 -7 -21 -13 -11 -19 -18 -12 -15 16 8 28
-13 15 -26 -12 -12 -4 -41 8 -33 5 3 12 0 16 -6 4 -7 3 -9 -4 -5 -6 3 -13 2
-17 -4 -3 -5 0 -10 7 -10 9 0 9 -3 -2 -10 -13 -9 -13 -10 0 -10 13 0 13 -1 0
-10 -12 -8 -12 -10 5 -11 20 0 20 -1 0 -8 -19 -8 -19 -8 0 -19 19 -11 19 -11
1 -12 -15 0 -16 -3 -6 -15 11 -13 10 -14 -6 -9 -18 7 -18 6 1 -16 11 -13 14
-20 8 -16 -8 4 -13 1 -13 -8 0 -24 4 -31 15 -28 5 2 2 -5 -8 -16 -19 -21 -23
-47 -5 -36 7 4 8 3 4 -5 -4 -6 -10 -9 -14 -7 -4 2 -16 -3 -27 -11 -16 -13 -17
-15 -2 -10 9 4 17 2 17 -3 0 -6 -6 -10 -14 -10 -8 0 -16 -6 -19 -13 -3 -9 -24
-13 -66 -13 -34 1 -61 -3 -61 -7 0 -4 -8 -4 -17 1 -23 12 -45 4 -36 -11 4 -7
-1 -6 -11 2 -12 11 -20 11 -28 3 -8 -8 -15 -9 -25 -1 -9 8 -13 8 -13 0 0 -6
-5 -11 -11 -11 -5 0 -8 4 -5 9 7 10 -9 8 -37 -4 -9 -4 -26 -5 -36 -2 -10 2
-24 1 -31 -3 -7 -4 -26 -4 -42 0 -20 6 -26 5 -22 -2 5 -8 1 -9 -10 -5 -10 4
-15 3 -11 -3 3 -6 2 -10 -3 -10 -11 0 -20 -30 -15 -47 3 -7 12 -13 21 -14 12
0 13 -2 4 -6 -10 -4 -9 -9 5 -19 17 -13 17 -14 -1 -7 -14 4 -17 3 -12 -6 10
-15 -13 -43 -28 -34 -6 4 -4 -2 4 -12 14 -17 13 -18 -2 -12 -12 4 -18 2 -18
-7 0 -8 -7 -17 -16 -20 -8 -3 -12 -10 -9 -16 6 -9 -8 -14 -28 -11 -4 1 -3 -8
3 -19 8 -15 8 -22 -2 -25 -8 -3 -14 -16 -15 -28 0 -12 1 -16 4 -9 3 6 9 12 14
12 6 0 8 -4 5 -9 -3 -5 4 -11 17 -15 31 -8 39 -7 33 3 -4 5 3 7 14 4 11 -3 17
-9 14 -14 -3 -5 6 -5 20 1 14 5 25 6 25 2 -3 -21 3 -32 19 -32 10 0 13 -3 6
-8 -13 -8 -15 -42 -2 -42 4 0 8 -6 8 -14 0 -7 8 -20 18 -27 16 -13 16 -13 2 5
-9 12 -10 17 -3 12 7 -4 22 -9 34 -11 17 -4 19 -2 8 11 -10 12 -9 13 3 9 17
-7 68 34 68 54 0 10 14 15 33 12 5 -1 6 2 3 7 -7 11 30 42 40 34 4 -4 4 -2 1
4 -7 13 55 74 76 74 8 0 21 8 28 17 12 14 12 16 0 8 -9 -5 -12 -4 -7 3 4 6 14
8 23 5 11 -4 14 -3 9 5 -4 7 -1 12 8 12 9 0 16 5 16 11 0 5 4 8 9 5 5 -3 12 1
15 10 3 9 11 12 18 8 8 -5 9 -2 4 11 -5 15 -4 16 9 5 11 -9 15 -9 15 -1 0 7 4
9 10 6 6 -3 7 1 4 10 -5 11 -2 14 10 9 9 -3 16 -1 16 5 0 6 6 10 13 8 6 -1 11
4 9 11 -1 8 2 11 8 7 6 -4 18 1 26 11 9 11 13 13 9 4 -4 -10 -2 -10 8 2 11 14
16 15 26 5 10 -9 11 -8 5 7 -5 13 -4 17 3 13 13 -8 26 20 16 35 -4 7 -1 8 7 3
8 -5 11 -3 8 6 -3 8 -11 13 -17 11 -7 -1 -10 2 -6 8 3 6 10 8 15 5 5 -3 11 -1
15 5 3 5 1 10 -6 10 -8 0 -8 4 1 15 9 11 9 15 1 15 -7 0 -9 5 -6 11 4 5 8 21
10 35 2 21 0 22 -13 12 -13 -12 -13 -10 0 17 15 29 14 60 -1 50 -5 -2 -6 7 -3
20 2 14 -2 33 -9 42 -10 12 -10 14 -1 9 6 -4 12 -3 12 3 0 5 -4 12 -9 16 -10
5 -7 36 3 54 4 5 0 12 -6 14 -10 4 -9 6 1 6 11 1 11 4 0 18 -12 15 -12 16 1 8
13 -7 13 -6 2 7 -7 9 -9 19 -4 22 10 6 9 36 -2 54 -4 7 -2 12 6 12 9 0 9 3 -2
10 -13 9 -13 10 0 10 13 0 13 1 0 10 -12 8 -12 10 -1 10 11 0 11 3 0 17 -12
14 -12 16 0 8 11 -6 13 -4 8 7 -3 9 0 21 6 28 9 10 9 11 0 6 -6 -3 -14 -2 -18
4 -3 5 -1 10 4 10 6 0 11 7 11 16 0 9 -5 12 -12 8 -7 -4 -5 1 4 12 14 16 15
23 6 32 -9 9 -9 12 3 12 10 1 9 5 -5 15 -23 17 -14 20 15 5 15 -8 19 -8 17 2
-2 7 6 13 19 13 12 0 26 5 30 9 5 5 2 6 -7 1 -9 -5 -12 -4 -7 1 11 12 40 11
49 -1 4 -6 8 -2 8 8 0 9 5 17 11 17 5 0 8 -4 5 -9 -3 -5 1 -12 10 -15 8 -3 12
-2 9 4 -3 6 3 10 15 10 14 0 19 -4 14 -12 -5 -9 -3 -9 9 1 14 11 18 11 23 -3
4 -10 13 -15 20 -12 8 3 14 1 14 -4 0 -6 7 -10 15 -10 8 0 15 -6 15 -12 0 -10
2 -10 9 0 6 10 10 9 14 -7 4 -15 10 -19 23 -14 11 4 15 2 11 -4 -7 -11 82 -80
98 -75 6 2 7 1 3 -3 -7 -8 27 -45 41 -45 5 0 13 -9 16 -21 5 -16 9 -18 21 -8
9 7 14 8 13 3 -4 -23 3 -34 22 -34 11 0 17 -4 14 -10 -5 -9 15 -15 37 -11 4 0
4 -7 1 -16 -4 -10 -2 -14 4 -10 6 4 14 1 16 -5 4 -10 6 -10 6 0 1 8 11 3 26
-13 14 -14 30 -25 36 -25 6 0 5 -8 -2 -21 -9 -17 -8 -20 1 -14 10 6 11 1 6
-19 -4 -15 -3 -25 1 -23 12 8 3 -76 -11 -92 -8 -12 -8 -13 1 -7 7 4 13 3 13
-3 0 -5 -4 -12 -9 -15 -10 -7 -9 -25 2 -43 4 -6 3 -14 -3 -18 -5 -3 -10 -17
-10 -31 0 -14 4 -22 10 -19 6 3 7 -1 4 -9 -3 -9 -9 -14 -13 -11 -4 2 -8 -2 -8
-10 0 -8 4 -12 9 -9 16 10 8 -9 -9 -22 -17 -12 -16 -13 7 -23 19 -7 20 -10 7
-10 -10 -1 -15 -6 -12 -12 4 -6 8 -28 9 -49 1 -32 -1 -36 -13 -27 -12 10 -12
9 -2 -10 10 -19 9 -23 -3 -23 -9 0 -13 -6 -10 -14 3 -8 -7 -18 -26 -26 -18 -7
-29 -18 -26 -26 5 -14 -20 -27 -35 -18 -5 3 -8 0 -7 -8 2 -7 -3 -12 -10 -10
-8 1 -11 -1 -9 -5 3 -5 -2 -17 -10 -28 -15 -19 -15 -19 -9 5 l7 25 -14 -23
c-7 -12 -17 -19 -22 -15 -4 4 -5 0 -2 -9 4 -13 1 -16 -14 -13 -15 3 -19 0 -15
-10 3 -9 0 -12 -10 -8 -7 3 -14 0 -14 -5 0 -6 -9 -9 -21 -7 -17 4 -19 2 -8
-11 10 -12 9 -13 -4 -8 -10 3 -20 -2 -26 -15 -7 -12 -19 -18 -31 -16 -13 3
-18 0 -14 -7 5 -8 1 -9 -11 -4 -14 5 -16 4 -6 -8 9 -11 6 -13 -18 -11 -21 2
-28 -1 -24 -11 3 -9 -2 -12 -17 -9 -18 4 -20 2 -9 -11 10 -12 9 -13 -5 -8 -10
4 -16 1 -16 -7 0 -11 -3 -11 -10 1 -8 13 -10 12 -10 -4 0 -16 -2 -17 -17 -5
-14 12 -16 12 -8 0 6 -11 4 -13 -9 -8 -13 5 -17 3 -13 -7 3 -8 -1 -17 -9 -20
-8 -3 -12 -1 -9 4 3 6 -1 7 -9 4 -9 -3 -13 -10 -10 -15 3 -5 -2 -9 -10 -9 -9
0 -15 -6 -13 -12 1 -7 -3 -12 -9 -11 -6 1 -11 -9 -11 -23 0 -14 2 -23 5 -20 2
3 14 0 26 -6 28 -16 56 -17 56 -4 0 6 4 5 9 -2 4 -7 18 -14 29 -15 12 -1 22
-5 22 -9 0 -4 5 -7 12 -5 7 1 12 -3 13 -10 0 -6 3 -15 7 -19 4 -4 0 -13 -10
-21 -9 -8 -12 -12 -7 -10 15 7 31 -15 29 -40 -1 -12 2 -20 6 -18 4 3 11 -7 14
-21 6 -22 9 -24 23 -12 14 11 16 11 8 -1 -7 -11 -1 -13 28 -8 37 6 51 16 117
79 39 37 47 41 88 39 16 -1 21 -5 16 -13 -5 -9 -2 -9 9 1 12 9 17 10 17 2 0
-7 5 -9 12 -5 7 5 8 3 4 -5 -5 -8 0 -14 14 -18 12 -3 19 -11 16 -19 -3 -8 -2
-13 2 -13 18 3 32 -2 32 -11 0 -17 35 -47 50 -42 7 3 10 1 7 -4 -2 -5 1 -15 9
-22 12 -10 14 -10 14 2 0 10 6 13 17 9 13 -5 15 -2 10 11 -4 10 -3 15 3 11 6
-3 10 -2 10 4 0 5 3 17 7 27 5 13 3 15 -7 9 -8 -5 -11 -4 -6 3 12 20 14 92 2
92 -7 0 -7 3 -1 8 12 8 14 152 2 152 -5 0 -5 5 -2 10 4 6 12 7 18 4 8 -5 8 -3
0 7 -7 7 -13 21 -13 32 0 12 4 16 13 11 6 -4 4 2 -6 13 -18 21 -18 22 0 32 12
7 13 10 4 11 -11 0 -11 3 0 17 10 11 10 14 1 9 -9 -5 -11 3 -9 33 2 24 -1 41
-7 41 -6 0 -4 5 4 10 13 9 13 10 0 10 -13 0 -13 1 0 10 11 7 11 10 2 10 -7 0
-10 5 -7 10 4 6 11 7 17 4 7 -5 8 -2 2 7 -13 21 -14 39 -1 39 6 0 2 7 -9 15
-12 9 -13 13 -4 10 11 -4 16 1 17 15 1 13 -2 18 -10 13 -7 -4 -7 -1 1 10 8 9
11 21 7 27 -3 5 -1 10 6 10 8 0 7 5 -2 17 -10 11 -10 17 -3 20 6 2 9 15 6 28
-3 17 0 25 9 25 12 0 12 2 1 9 -11 7 -11 11 2 23 9 10 11 19 5 25 -6 6 -5 14
5 22 11 9 12 19 6 36 -6 17 -5 27 5 35 8 6 11 18 8 26 -3 8 0 14 7 14 9 0 9 4
-1 17 -12 14 -12 16 0 8 11 -6 13 -4 8 8 -3 10 -2 17 4 17 6 0 7 5 4 10 -4 6
-1 17 5 25 7 8 10 26 8 40 -4 21 -3 23 9 14 11 -9 12 -9 8 4 -4 8 -1 18 4 22
6 3 8 11 5 17 -5 7 -2 8 6 3 7 -4 15 -2 20 4 4 7 16 14 26 15 10 2 18 9 17 14
-2 6 3 9 11 6 7 -3 16 2 19 10 4 9 11 16 17 16 15 0 34 20 43 43 4 11 12 15
18 11 7 -4 9 -3 5 4 -3 6 4 18 16 26 12 9 18 16 13 16 -6 0 -2 5 8 11 9 6 14
15 11 21 -5 7 -2 9 8 5 12 -4 15 0 13 18 -1 14 1 22 6 19 4 -2 13 5 19 16 6
11 15 18 20 15 6 -3 7 1 4 9 -3 9 -1 16 6 16 6 0 8 5 5 10 -3 6 -1 10 5 10 6
0 15 12 20 26 6 14 14 22 20 19 6 -4 7 1 3 11 -5 13 -3 15 8 9 8 -4 11 -5 7 0
-4 4 -2 17 4 29 7 11 11 24 10 28 -1 4 6 4 15 1 11 -4 14 -3 9 5 -4 6 2 20 12
30 10 10 18 26 16 35 -1 9 3 15 9 14 6 -1 16 9 24 23 7 14 18 24 25 22 8 -2 7
2 -2 13 -11 13 -10 14 5 9 13 -5 16 -4 11 4 -4 7 -3 12 3 12 6 0 7 7 4 17 -4
9 -2 14 3 11 5 -3 14 0 21 7 10 11 10 15 0 18 -7 3 -4 6 6 6 10 1 15 6 12 11
-3 6 -2 10 3 10 5 0 15 12 23 28 8 15 21 33 29 40 13 10 12 11 -5 6 -17 -5
-18 -4 -5 8 8 7 16 20 18 28 2 8 7 16 11 18 5 1 7 16 5 33 -3 21 0 28 8 23 7
-5 8 -3 4 5 -5 7 -1 18 10 25 13 10 14 15 4 21 -9 6 -11 4 -5 -5 6 -9 4 -11
-5 -5 -11 7 -9 12 8 23 12 8 22 22 22 31 0 14 2 14 10 1 8 -13 10 -12 10 3 0
12 4 16 13 11 7 -5 6 0 -3 11 -10 12 -10 16 -2 11 15 -9 45 12 36 25 -3 5 -2
9 3 8 18 -3 36 1 30 7 -9 9 20 35 35 32 8 -2 12 4 10 16 -2 10 1 15 7 12 5 -4
15 3 21 14 6 11 15 18 20 15 6 -4 7 1 3 11 -4 12 -3 15 5 10 7 -4 12 -2 12 3
0 6 7 11 16 11 8 0 13 4 9 9 -5 10 23 31 37 28 3 -1 10 2 15 7 5 5 3 6 -4 2
-7 -4 -13 -2 -13 3 0 6 5 11 11 11 7 0 18 8 26 18 8 9 11 11 7 3 -5 -9 -3 -12
4 -7 7 4 12 15 12 24 0 15 2 15 10 2 8 -12 10 -10 10 8 0 13 4 21 9 18 5 -3
12 1 15 10 4 10 12 14 22 10 15 -6 15 -4 3 11 -12 14 -12 16 1 11 17 -6 38 12
33 29 -2 6 6 14 18 18 16 6 18 9 8 16 -11 6 -10 9 4 15 9 3 14 11 11 16 -4 6
4 20 17 30 21 17 21 19 4 14 l-20 -6 20 17 c11 10 20 25 20 33 0 9 8 14 20 12
16 -2 17 -1 5 7 -13 9 -13 14 -2 32 11 17 11 20 0 13 -10 -6 -10 -4 1 9 8 10
11 20 7 24 -3 3 0 13 8 22 7 9 17 27 21 40 5 18 4 22 -6 17 -8 -4 -6 -1 3 7
10 8 15 17 11 20 -3 4 0 7 8 7 11 0 11 2 -1 10 -10 7 -11 10 -2 10 9 0 10 11
6 42 -6 34 -5 40 7 33 8 -5 3 4 -11 19 -19 21 -21 26 -6 20 16 -6 17 -5 7 15
-7 12 -23 27 -37 33 -13 6 -24 14 -24 18 0 4 -14 13 -30 20 -25 10 -28 15 -18
27 6 8 7 13 2 12 -19 -3 -33 2 -48 17 -11 11 -16 12 -16 3 0 -8 -6 -5 -13 5
-13 18 -14 18 -21 1 -5 -14 -9 -15 -21 -5 -12 10 -15 10 -15 0 0 -10 -3 -10
-15 0 -12 10 -16 9 -21 -4 -5 -14 -9 -14 -22 -4 -12 10 -14 10 -8 1 4 -8 2
-13 -4 -13 -6 0 -9 -4 -6 -9 4 -5 -3 -7 -14 -4 -11 3 -20 0 -20 -6 0 -6 -7
-11 -15 -11 -8 0 -15 -4 -15 -10 0 -5 -5 -10 -11 -10 -5 0 -7 5 -3 11 3 6 -5
4 -18 -5 -14 -9 -28 -13 -31 -9 -4 3 -7 1 -7 -6 0 -7 -4 -9 -10 -6 -5 3 -10 1
-10 -5 0 -6 -5 -8 -10 -5 -6 4 -18 1 -27 -7 -14 -11 -16 -11 -8 2 6 12 5 13
-6 3 -7 -7 -17 -13 -22 -13 -4 0 -5 6 -1 13 4 6 -2 4 -13 -6 -21 -18 -22 -18
-32 0 -9 16 -10 16 -11 1 0 -9 -5 -20 -12 -24 -7 -4 -8 -3 -4 4 7 11 3 13 -36
16 -7 1 -21 9 -30 19 -10 9 -26 17 -35 17 -9 0 -13 3 -9 7 3 4 -8 12 -26 18
-23 7 -35 7 -40 0 -5 -6 -8 -3 -8 6 0 12 -8 15 -30 13 -17 -2 -30 1 -30 7 0 7
-11 9 -25 7 -17 -4 -29 0 -34 10 -8 14 -11 14 -27 2 -11 -9 -15 -10 -10 -2 4
7 1 12 -8 13 -36 3 -52 6 -69 14 -10 4 -30 8 -46 9 -16 0 -27 5 -24 12 2 7 -7
9 -27 6 -16 -2 -30 0 -30 5 0 5 -12 10 -27 11 -15 1 -30 8 -35 15 -6 9 -8 8
-8 -3 0 -9 -3 -11 -8 -5 -11 16 -56 39 -47 25 4 -7 -4 -4 -18 5 -15 9 -31 14
-37 10 -5 -3 -10 -3 -10 2 0 4 -11 13 -25 20 -19 8 -23 8 -18 0 4 -7 -1 -6
-10 2 -9 7 -24 11 -32 7 -9 -3 -13 -2 -10 3 3 5 1 12 -5 16 -5 3 -10 0 -10 -7
0 -8 -4 -7 -11 4 -5 9 -16 15 -24 12 -8 -4 -17 1 -21 9 -3 9 -13 13 -25 10
-11 -3 -19 0 -19 6 0 7 -4 9 -10 6 -5 -3 -10 -1 -10 6 0 7 -3 9 -7 6 -3 -4
-14 0 -24 9 -13 12 -19 12 -25 3 -5 -8 -3 -10 6 -4 9 6 11 4 6 -4 -6 -9 -12
-9 -25 3 -10 9 -21 13 -25 9 -4 -4 -11 -1 -16 7 -8 12 -10 12 -10 1 0 -11 -3
-11 -17 0 -15 12 -16 12 -8 -1 8 -13 7 -13 -8 -1 -13 10 -17 10 -17 1 0 -9 -4
-9 -17 1 -9 8 -19 12 -22 11 -29 -17 -41 -21 -41 -14 0 5 -7 9 -15 9 -8 0 -15
-5 -15 -10 0 -5 -6 -4 -14 2 -10 8 -16 9 -21 1 -4 -7 -12 -7 -26 0 -14 8 -19
7 -19 -1 0 -8 -4 -9 -13 0 -10 8 -17 7 -25 -1 -9 -9 -12 -9 -12 0 0 9 -5 10
-19 2 -13 -7 -22 -7 -26 0 -3 5 -11 10 -16 10 -6 0 -8 -4 -5 -8 3 -5 -1 -9 -9
-9 -8 0 -12 4 -9 9 3 4 0 8 -6 8 -21 0 -61 50 -63 80 -1 16 -6 30 -11 30 -5 0
-5 6 0 13 11 15 11 38 0 56 -5 8 -4 16 4 21 7 4 10 17 7 29 -3 12 -1 21 4 21
4 0 6 7 3 15 -4 9 0 15 7 15 12 0 12 2 1 9 -11 7 -10 9 3 14 13 5 14 11 5 27
-8 15 -8 20 1 20 8 0 7 5 -2 17 -10 12 -11 15 -1 9 9 -6 11 -1 8 19 -4 21 -2
25 10 21 11 -4 13 -2 5 11 -6 12 -5 20 7 29 13 9 14 15 4 26 -9 11 -9 17 1 28
8 8 8 11 0 6 -7 -4 -9 1 -6 14 3 11 8 18 12 16 3 -2 7 7 7 20 1 15 -2 22 -10
18 -6 -3 -2 2 9 11 17 14 18 17 5 25 -13 9 -13 10 0 10 13 0 13 1 0 11 -11 8
-12 12 -2 16 6 2 12 11 12 19 0 9 -5 13 -12 9 -7 -4 -5 0 4 8 11 8 15 21 11
35 -3 15 -1 22 8 22 11 0 11 2 -1 10 -12 8 -13 11 -1 19 11 7 11 9 0 14 -10 4
-10 6 -1 6 6 1 12 6 12 12 0 5 -4 8 -9 5 -11 -7 -9 13 2 32 5 7 3 12 -5 12 -9
0 -9 3 2 10 8 5 10 10 4 10 -7 0 -15 7 -18 16 -4 11 -2 15 8 11 10 -4 13 -1 9
8 -3 8 -8 13 -12 11 -3 -2 -6 13 -6 35 0 28 4 39 15 39 9 0 11 3 4 8 -6 4 -13
15 -17 24 -4 13 -2 15 11 11 14 -6 15 -4 4 9 -10 13 -10 17 0 21 7 3 2 6 -12
7 -14 1 -19 4 -12 7 6 2 12 9 12 14 0 6 -4 8 -8 5 -5 -3 -9 1 -9 9 0 8 5 11
10 8 6 -4 8 0 4 10 -8 22 10 32 29 16 12 -10 13 -9 9 4 -4 8 -1 18 6 23 8 5
10 3 4 -6 -5 -8 -4 -11 3 -6 6 4 8 14 5 23 -4 10 -2 14 4 10 6 -4 14 0 17 9 4
10 2 13 -7 9 -6 -4 -3 1 7 9 15 12 16 16 5 16 -12 0 -12 2 0 9 8 5 15 19 16
30 1 11 -2 18 -7 15 -4 -3 -4 6 1 19 6 14 7 28 3 32 -3 3 2 3 12 -1 14 -5 17
-4 11 5 -4 8 -2 17 6 22 12 7 11 9 -1 9 -13 0 -13 2 -1 9 8 5 16 17 17 25 1 9
-2 14 -7 10 -5 -3 -9 0 -9 5 0 6 8 11 17 11 15 0 14 2 -3 16 -10 8 -13 13 -6
9 14 -7 17 11 2 20 -5 3 -10 11 -10 16 0 6 4 8 8 5 5 -3 9 1 9 8 0 9 -7 12
-16 8 -14 -5 -14 -4 -1 13 8 10 10 16 4 12 -7 -4 -18 10 -29 33 -10 22 -22 40
-27 40 -5 0 -6 5 -3 10 3 6 -1 10 -10 10 -9 0 -14 4 -11 9 3 5 -1 11 -9 15 -8
3 -15 12 -15 20 0 16 -56 76 -71 76 -6 0 -7 5 -4 10 3 6 1 10 -5 10 -6 0 -22
10 -35 23 -65 62 -99 90 -90 77 6 -9 2 -7 -7 3 -10 11 -18 16 -18 11 0 -4 -9
2 -20 14 -12 12 -25 22 -31 22 -6 0 -7 5 -3 11 4 8 0 8 -15 0 -17 -10 -20 -9
-15 4 4 10 0 15 -10 15 -9 0 -16 5 -16 11 0 5 -4 8 -9 5 -5 -3 -14 1 -21 9 -7
8 -21 15 -31 15 -11 0 -19 5 -19 10 0 6 -5 10 -11 10 -5 0 -8 -4 -5 -9 4 -5
-5 -4 -18 2 -13 7 -22 16 -19 20 3 5 -4 4 -15 -2 -16 -8 -21 -7 -26 5 -3 9
-12 14 -19 11 -8 -3 -19 4 -26 14 -6 11 -17 17 -22 13 -6 -4 -14 -3 -18 2 -12
18 -51 34 -66 28 -8 -3 -15 -2 -15 4 0 5 -7 13 -16 16 -10 4 -13 2 -8 -6 5 -7
3 -8 -7 -2 -23 14 -35 13 -48 -5z m-201 -781 c0 -5 -5 -10 -11 -10 -5 0 -7 5
-4 10 3 6 8 10 11 10 2 0 4 -4 4 -10z m40 -20 c0 -5 -2 -10 -4 -10 -3 0 -8 5
-11 10 -3 6 -1 10 4 10 6 0 11 -4 11 -10z m870 -840 c0 -5 -5 -10 -11 -10 -5
0 -7 5 -4 10 3 6 8 10 11 10 2 0 4 -4 4 -10z m-835 -2010 c3 -6 -1 -7 -9 -4
-18 7 -21 14 -7 14 6 0 13 -4 16 -10z m735 -944 c0 -3 -4 -8 -10 -11 -5 -3
-10 -1 -10 4 0 6 5 11 10 11 6 0 10 -2 10 -4z"/>
<path d="M2860 5859 c0 -5 5 -7 10 -4 6 3 10 8 10 11 0 2 -4 4 -10 4 -5 0 -10
-5 -10 -11z"/>
<path d="M2456 5328 c3 -4 11 -5 19 -1 21 7 19 12 -4 10 -11 0 -18 -5 -15 -9z"/>
<path d="M2956 3087 c3 -10 9 -15 12 -12 3 3 0 11 -7 18 -10 9 -11 8 -5 -6z"/>
<path d="M4625 2040 c-3 -6 1 -7 9 -4 18 7 21 14 7 14 -6 0 -13 -4 -16 -10z"/>
</g>
</svg>
